<svg xmlns="http://www.w3.org/2000/svg" version="1.1" xmlns:xlink="http://www.w3.org/1999/xlink" xmlns:svgjs="http://svgjs.dev/svgjs" width="1500" height="973" viewBox="0 0 1500 973"><g transform="matrix(1,0,0,1,-0.9090909090909918,-1.491802616801067)"><svg viewBox="0 0 396 257" data-background-color="#ffffff" preserveAspectRatio="xMidYMid meet" height="973" width="1500" xmlns="http://www.w3.org/2000/svg" xmlns:xlink="http://www.w3.org/1999/xlink"><g id="tight-bounds" transform="matrix(1,0,0,1,0.2400000000000091,1.6008352197268323)"><svg viewBox="0 0 395.52 247.2" height="247.2" width="395.52"><g><svg></svg></g><g><svg viewBox="0 0 395.52 247.2" height="247.2" width="395.52"><mask id="f8afebca-d8a2-41b6-abc9-a93be931fd8a"><rect width="640" height="400" fill="white"></rect><g transform="matrix(1,0,0,1,39.55199999999999,81.63334798534798)"><svg viewBox="0 0 316.416 83.93330402930403" height="83.93330402930403" width="316.416"><g><svg viewBox="0 0 316.416 83.93330402930403" height="83.93330402930403" width="316.416"><g><svg viewBox="0 0 316.416 83.93330402930403" height="83.93330402930403" width="316.416"><g><svg viewBox="0 0 316.416 83.93330402930403" height="83.93330402930403" width="316.416"><g id="SvgjsG1455"><svg viewBox="0 0 316.416 83.93330402930403" height="83.93330402930403" width="316.416" id="SvgjsSvg1454"><g><svg viewBox="0 0 316.416 83.93330402930403" height="83.93330402930403" width="316.416"><g transform="matrix(1,0,0,1,0,0)"><svg width="316.416" viewBox="-2.85 -34.6 164.78 44.45" height="83.93330402930403" data-palette-color="#87ed89"><path d="M49.5 3.05L49.5 3.05Q48 3.05 47.08 1.63 46.15 0.2 46.35-1.75L46.35-1.75Q46.6-4.15 47.53-7.43 48.45-10.7 49.83-14.33 51.2-17.95 52.75-21.35L52.75-21.35Q52.1-20.45 51.18-19.18 50.25-17.9 49.1-16.25L49.1-16.25 48.2-14.95Q47.05-13.3 46.1-12 45.15-10.7 44.4-9.7L44.4-9.7Q44.3-9.6 43.98-9.18 43.65-8.75 43.1-8.05L43.1-8.05Q42.55-7.35 41.93-6.63 41.3-5.9 40.65-5.2L40.65-5.2Q37.65-1.85 36.6-1.85L36.6-1.85Q35.1-1.8 34.35-3.2 33.6-4.6 33.6-7.05L33.6-7.05Q33.6-8.05 33.75-9.25L33.75-9.25Q34.15-13.05 35.85-19.1L35.85-19.1 37-23.2Q37.25-24.05 37.35-24.75 37.45-25.45 37.5-26.05L37.5-26.05Q37.5-26.7 37.93-26.98 38.35-27.25 39-27.25L39-27.25Q39.7-27.25 40.28-26.95 40.85-26.65 40.8-26.3L40.8-26.3Q40.65-25.35 40.4-24.35 40.15-23.35 39.8-22.25L39.8-22.25Q39.7-21.85 39.43-21.2 39.15-20.55 38.75-19.7L38.75-19.7 38.15-18.35Q37.05-15.9 36.4-13.75 35.75-11.6 35.5-9.35L35.5-9.35Q35.45-9.15 35.45-8.83 35.45-8.5 35.45-8.1L35.45-8.1Q35.45-6.6 35.98-5.98 36.5-5.35 37.65-5.3L37.65-5.3Q38.15-5.3 38.98-5.85 39.8-6.4 40.7-7.2 41.6-8 42.43-8.88 43.25-9.75 43.75-10.4L43.75-10.4Q46.75-14.2 49.28-17.78 51.8-21.35 53.58-24.45 55.35-27.55 56.05-29.85L56.05-29.85Q56.3-30.6 57.25-30.6L57.25-30.6Q58-30.6 58.6-30.1 59.2-29.6 58.9-29L58.9-29 58.05-27.35Q56.7-24.7 55.48-22.33 54.25-19.95 53.3-17.75L53.3-17.75 53.25-17.8Q51.2-13.1 50.03-9.18 48.85-5.25 48.5-2.05L48.5-2.05Q48.4-0.6 48.88 0.5 49.35 1.6 50.3 1.6L50.3 1.6Q51.55 1.6 52.95-0.2L52.95-0.2Q53.45-0.85 53.85-0.7L53.85-0.7Q54-0.55 54-0.45L54-0.45Q54-0.2 53.8 0L53.8 0Q52.75 1.55 51.63 2.3 50.5 3.05 49.5 3.05ZM8.35 5.85L8.35 5.85Q5.05 5.85 3.1 3.73 1.15 1.6 1.15-2.2L1.15-2.2Q1.15-7.45 4.95-14.3L4.95-14.3Q7.55-19 10.73-21.28 13.9-23.55 16.8-23.55L16.8-23.55Q19.35-23.55 21.03-22 22.7-20.45 22.7-18.05L22.7-18.05Q22.7-16.25 21.68-14.3 20.65-12.35 18.55-10.4L18.55-10.4Q18.3-10.15 18.05-10.15L18.05-10.15Q17.8-10.15 17.8-10.45L17.8-10.45Q17.8-10.75 18.2-11.15L18.2-11.15Q19.7-12.7 20.45-14.28 21.2-15.85 21.2-17.25L21.2-17.25Q21.2-19.25 19.9-20.53 18.6-21.8 16.6-21.8L16.6-21.8Q14.2-21.8 11.58-19.83 8.95-17.85 6.65-13.7L6.65-13.7Q2.95-6.85 2.95-2.05L2.95-2.05Q2.95 1 4.42 2.7 5.9 4.4 8.5 4.4L8.5 4.4Q10.85 4.4 13.75 3 16.65 1.6 19.9-1.25L19.9-1.25Q24.4-5.25 28.15-10.7L28.15-10.7Q30.05-13.45 31.05-14.9 32.05-16.35 32.15-16.5L32.15-16.5Q32.95-17.6 33.85-18.88 34.75-20.15 35.75-21.65L35.75-21.65Q35.9-21.9 36.05-21.6L36.05-21.6Q36.3-21.2 36.1-20.95L36.1-20.95Q34.95-19.25 33.52-16.88 32.1-14.5 30.3-11.55L30.3-11.55 29.4-10.1 29.45-10.1Q25.45-3.9 20.5 0.25L20.5 0.25Q17.2 3.05 14.08 4.45 10.95 5.85 8.35 5.85ZM57.5 0.55L57.5 0.55Q56.45 0.55 55.65 0L55.65 0Q54.35-1 54.35-3L54.35-3Q54.35-5 55.75-7.25 57.15-9.5 60-11.4L60-11.4Q60.5-11.75 61.35-11.75L61.35-11.75Q62.45-11.75 63.32-11.15 64.2-10.55 64-9.6L64-9.6Q63.65-8.05 62.47-6.85 61.3-5.65 59.72-4.73 58.15-3.8 56.5-2.95L56.5-2.95Q56.45-2.8 56.42-2.65 56.4-2.5 56.4-2.35L56.4-2.35Q56.4-1.65 56.87-1.13 57.35-0.6 58.2-0.6L58.2-0.6Q58.85-0.6 59.3-0.8L59.3-0.8Q60.1-1.1 60.62-1.35 61.15-1.6 61.85-2.1 62.55-2.6 63.75-3.6L63.75-3.6Q64.3-4 64.4-4L64.4-4Q64.7-4 64.6-3.55L64.6-3.55Q64.1-2.75 62.87-1.8 61.65-0.85 60.17-0.15 58.7 0.55 57.5 0.55ZM56.8-4.3L56.8-4.3Q57.2-4.3 58.45-5.1 59.7-5.9 60.8-6.85L60.8-6.85Q62.7-8.6 62.7-9.55L62.7-9.55Q62.7-9.8 62.55-10L62.55-10Q62.4-10.25 62.1-10.25L62.1-10.25Q61.15-10.25 58.9-8L58.9-8Q57.35-6.5 56.8-4.3ZM65.05 4.65L65.05 4.65Q64.8 4.65 64.8 4.2L64.8 4.2Q64.8 4.1 64.82 3.93 64.84 3.75 64.9 3.55L64.9 3.55 67.05-1.85 69.59-8.15Q69-8.2 67.84-8.13 66.7-8.05 65.9-7.9L65.9-7.9Q65.59-7.85 65.42-7.83 65.25-7.8 65.15-7.8L65.15-7.8Q64.75-7.8 64.59-8.15L64.59-8.15Q64.65-8.45 65.15-8.7L65.15-8.7Q65.4-8.8 65.75-8.88 66.09-8.95 66.59-9.05L66.59-9.05Q67.15-9.15 67.57-9.2 68-9.25 68.2-9.3L68.2-9.3Q68.45-9.35 68.7-9.4 68.95-9.45 69.3-9.5L69.3-9.5Q69.59-9.55 69.95-9.6 70.3-9.65 70.7-9.75L70.7-9.75Q71.09-10.3 71.9-11.7 72.7-13.1 73.95-15.4L73.95-15.4Q74.95-17.25 75.57-18.32 76.2-19.4 76.45-19.75L76.45-19.75Q76.9-20.35 77.5-20.35L77.5-20.35Q77.8-20.35 77.8-20.1L77.8-20.1Q77.8-20.05 77.55-19.45L77.55-19.45Q77.25-18.95 76.55-17.6 75.84-16.25 75.05-14.65 74.25-13.05 73.59-11.65 72.95-10.25 72.7-9.6L72.7-9.6Q72.95-9.65 73.27-9.65 73.59-9.65 74.09-9.65L74.09-9.65Q74.65-9.65 75.12-9.63 75.59-9.6 75.95-9.55L75.95-9.55Q76.65-9.4 76.65-9.15L76.65-9.15Q76.65-9.05 76.2-8.8L76.2-8.8Q75.95-8.7 75.25-8.6 74.55-8.5 73.4-8.4L73.4-8.4Q73.09-8.4 72.75-8.38 72.4-8.35 72-8.3L72-8.3Q70.5-5.85 67.9-0.15L67.9-0.15Q66.95 1.75 66.45 2.8 65.95 3.85 65.84 4.05L65.84 4.05Q65.4 4.65 65.05 4.65ZM82.54 1.35L82.54 1.35Q82.44 1.35 82.34 1.33 82.24 1.3 82.14 1.25L82.14 1.25Q81.44 0.9 81.24 0.25 81.04-0.4 81.14-1.4L81.14-1.4Q81.24-1.8 81.37-2.8 81.49-3.8 81.69-4.4L81.69-4.4 79.14-1.95 77.74-0.6Q76.29 0.85 75.34 0.85L75.34 0.85Q74.94 0.85 74.69 0.55L74.69 0.55Q74.24 0 74.24-0.8L74.24-0.8Q74.24-1.85 74.79-3.05 75.34-4.25 76.09-5.38 76.84-6.5 77.44-7.25L77.44-7.25Q78.94-9.1 80.37-10.15 81.79-11.2 83.34-11.2L83.34-11.2Q84.19-11.2 85.02-10.9 85.84-10.6 86.54-9.9L86.54-9.9 86.59-9.85Q86.59-9.7 86.34-9.55L86.34-9.55Q86.24-9.45 86.17-9.4 86.09-9.35 86.04-9.3L86.04-9.3Q85.44-8.7 84.69-7.3 83.94-5.9 83.39-4.38 82.84-2.85 82.84-1.75L82.84-1.75Q82.84-0.75 83.34-0.4L83.34-0.4Q83.59-0.25 83.89-0.25L83.89-0.25Q84.54-0.25 85.69-1.05L85.69-1.05Q85.74-1.1 85.92-1.23 86.09-1.35 86.44-1.6L86.44-1.6Q86.84-1.9 87.09-1.9L87.09-1.9Q87.34-1.9 87.34-1.7L87.34-1.7Q87.34-1.4 86.94-1L86.94-1Q86.64-0.75 86.27-0.45 85.89-0.15 85.39 0.15L85.39 0.15Q84.64 0.7 83.84 1.03 83.04 1.35 82.54 1.35ZM76.89-1.85L76.89-1.85Q77.94-1.85 80.79-4.95L80.79-4.95Q81.54-5.8 82.14-6.58 82.74-7.35 83.24-8.1L83.24-8.1Q84.14-9.55 83.84-10.1L83.84-10.1Q83.69-10.4 83.24-10.4L83.24-10.4Q82.69-10.4 81.74-9.83 80.79-9.25 79.82-8.35 78.84-7.45 78.04-6.55L78.04-6.55Q77.49-5.85 76.94-4.6 76.39-3.35 76.39-2.55L76.39-2.55Q76.39-1.85 76.89-1.85ZM112.99 3.8L112.99 3.8Q111.99 3.8 111.99 2.8L111.99 2.8Q111.99 1.95 112.59 1L112.59 1Q113.84-1 114.74-2.4 115.64-3.8 116.14-4.6L116.14-4.6Q118.99-13.3 118.99-20.15L118.99-20.15Q118.99-24.6 117.79-27.18 116.59-29.75 114.49-29.75L114.49-29.75Q112.59-29.75 110.49-28.5 108.39-27.25 106.39-25.15 104.39-23.05 102.79-20.5L102.79-20.5Q101.49-18.5 100.76-16.6 100.04-14.7 100.04-13.35L100.04-13.35Q100.04-11.1 102.04-11.1L102.04-11.1Q103.34-11.1 104.89-11.95 106.44-12.8 108.24-14.25L108.24-14.25Q108.64-14.55 108.84-14.55L108.84-14.55Q108.94-14.55 108.94-14.45L108.94-14.45Q108.94-14.25 108.64-13.85L108.64-13.85Q107.99-13.1 106.71-12.2 105.44-11.3 104.06-10.63 102.69-9.95 101.64-9.95L101.64-9.95Q99.79-9.95 98.71-11.25 97.64-12.55 97.64-14.5L97.64-14.5Q97.64-15.95 98.24-17.35L98.24-17.35Q98.94-18.9 100.01-20.45 101.09-22 102.49-23.55L102.49-23.55Q104.39-25.65 106.54-27.23 108.69-28.8 110.84-29.7 112.99-30.6 114.89-30.6L114.89-30.6Q118.04-30.6 119.41-27.7 120.79-24.8 120.79-20.25L120.79-20.25Q120.79-18.05 120.51-15.73 120.24-13.4 119.76-11.4 119.29-9.4 118.69-8.05L118.69-8.05Q121.09-11.1 123.79-14.23 126.49-17.35 129.26-20.13 132.04-22.9 134.76-25.1 137.49-27.3 139.96-28.55 142.44-29.8 144.44-29.8L144.44-29.8Q145.59-29.8 145.59-28.7L145.59-28.7Q145.59-27.75 144.44-26L144.44-26Q144.09-25.55 143.79-25.55L143.79-25.55Q143.44-25.55 143.44-25.9L143.44-25.9Q143.44-26.15 143.69-26.55L143.69-26.55Q143.79-26.7 143.94-27 144.09-27.3 144.09-27.55L144.09-27.55Q144.09-27.95 143.64-28.15L143.64-28.15Q143.29-28.3 142.74-28.3L142.74-28.3Q140.29-28.3 135.99-24.75L135.99-24.75Q133.84-22.95 131.61-20.83 129.39-18.7 127.41-16.53 125.44-14.35 123.86-12.43 122.29-10.5 121.39-9.15L121.39-9.15Q120.89-8.4 120.34-7.53 119.79-6.65 119.19-5.65L119.19-5.65 117.94-3.65Q117.59-2.65 117.16-1.53 116.74-0.4 116.19 0.9L116.19 0.9Q115.59 2.3 114.69 3.05 113.79 3.8 112.99 3.8ZM127.69-10.95L127.69-10.95Q127.04-10.95 127.04-11.25L127.04-11.25Q127.04-11.5 127.41-11.98 127.79-12.45 128.28-12.8L128.28-12.8Q129.38-13.5 130.01-14 130.63-14.5 131.53-15.7L131.53-15.7Q131.59-15.6 131.59-15.3L131.59-15.3Q131.59-14.65 131.06-13.73 130.53-12.8 129.88-12.05 129.24-11.3 128.74-11.1L128.74-11.1Q128.28-10.95 127.69-10.95ZM123.23 1.3L123.23 1.3Q122.84 1.3 122.48 1 122.14 0.7 122.14 0.2L122.14 0.2Q122.14-0.85 123.59-3.65L123.59-3.65 124.14-4.75Q124.23-4.85 124.41-5.25 124.59-5.65 124.94-6.3L124.94-6.3Q125.29-7 125.48-7.55 125.69-8.1 125.79-8.6L125.79-8.6Q125.79-8.65 125.98-8.8 126.19-8.95 126.39-9.05L126.39-9.05 126.69-9.1Q127.09-9.1 127.36-8.95 127.64-8.8 127.54-8.55L127.54-8.55Q127.19-7.8 126.94-7.25 126.69-6.7 126.54-6.3L126.54-6.3 126.48-6.3Q125.94-5.05 125.56-3.93 125.19-2.8 125.23-1.8L125.23-1.8 125.29-0.45Q125.23 0.05 124.94 0.4L124.94 0.4Q124.73 0.55 124.39 0.78 124.04 1 123.48 1.25L123.48 1.25Q123.44 1.3 123.23 1.3ZM130.83 0.55L130.83 0.55Q129.78 0.55 128.98 0L128.98 0Q127.68-1 127.68-3L127.68-3Q127.68-5 129.08-7.25 130.48-9.5 133.33-11.4L133.33-11.4Q133.83-11.75 134.68-11.75L134.68-11.75Q135.78-11.75 136.66-11.15 137.53-10.55 137.33-9.6L137.33-9.6Q136.98-8.05 135.81-6.85 134.63-5.65 133.06-4.73 131.48-3.8 129.83-2.95L129.83-2.95Q129.78-2.8 129.76-2.65 129.73-2.5 129.73-2.35L129.73-2.35Q129.73-1.65 130.21-1.13 130.68-0.6 131.53-0.6L131.53-0.6Q132.18-0.6 132.63-0.8L132.63-0.8Q133.43-1.1 133.96-1.35 134.48-1.6 135.18-2.1 135.88-2.6 137.08-3.6L137.08-3.6Q137.63-4 137.73-4L137.73-4Q138.03-4 137.93-3.55L137.93-3.55Q137.43-2.75 136.21-1.8 134.98-0.85 133.51-0.15 132.03 0.55 130.83 0.55ZM130.13-4.3L130.13-4.3Q130.53-4.3 131.78-5.1 133.03-5.9 134.13-6.85L134.13-6.85Q136.03-8.6 136.03-9.55L136.03-9.55Q136.03-9.8 135.88-10L135.88-10Q135.73-10.25 135.43-10.25L135.43-10.25Q134.48-10.25 132.23-8L132.23-8Q130.68-6.5 130.13-4.3ZM148.28 1.3L148.28 1.3Q147.23 1.15 146.86 0.58 146.48 0 146.48-1L146.48-1Q146.48-1.25 146.56-1.8 146.63-2.35 146.73-3.15L146.73-3.15 146.73-3.55Q146.73-4.25 146.48-4.35L146.48-4.35Q146.43-4.4 146.23-4.4L146.23-4.4Q145.88-4.4 144.93-3.75L144.93-3.75Q144.88-3.7 144.38-3.28 143.88-2.85 142.93-2.05L142.93-2.05Q140.18 0.4 139.18 0.15L139.18 0.15Q138.13-0.1 138.13-1.25L138.13-1.25Q138.13-2.35 138.93-3.9L138.93-3.9Q139.58-5.3 140.53-6.63 141.48-7.95 142.03-8.35L142.03-8.35Q142.43-8.6 142.68-8.6L142.68-8.6Q142.93-8.6 143.13-8.4L143.13-8.4Q143.23-8.3 143.23-8.1L143.23-8.1Q143.23-7.9 142.98-7.65L142.98-7.65Q142.48-7.15 142.03-6.13 141.58-5.1 141.58-4.3L141.58-4.3Q141.58-4.2 141.61-4.05 141.63-3.9 141.68-3.7L141.68-3.7Q141.93-3.55 142.23-3.55L142.23-3.55Q142.83-3.55 143.88-4.15L143.88-4.15Q144.28-4.4 144.98-4.88 145.68-5.35 146.68-6.1L146.68-6.1Q147.08-6.4 147.58-6.4L147.58-6.4Q148.13-6.4 148.51-6.03 148.88-5.65 148.88-5L148.88-5Q148.88-4.9 148.86-4.73 148.83-4.55 148.78-4.3L148.78-4.3Q148.68-3.9 148.58-3.55 148.48-3.2 148.43-2.85L148.43-2.85Q148.38-2.65 148.38-2.33 148.38-2 148.38-1.6L148.38-1.6Q148.38-0.5 149.53-0.5L149.53-0.5Q150.03-0.5 150.56-0.68 151.08-0.85 151.33-1.1L151.33-1.1Q153.73-3.2 156.03-6.55L156.03-6.55 155.98-7.15Q155.93-7.65 156.18-8.13 156.43-8.6 156.83-9.1L156.83-9.1Q156.98-9.3 157.23-9.3L157.23-9.3Q157.48-9.3 157.71-9.08 157.93-8.85 157.93-8.5L157.93-8.5Q157.93-8.25 157.78-7.95L157.78-7.95Q157.48-7.4 156.83-6.38 156.18-5.35 155.33-4.15 154.48-2.95 153.63-1.9 152.78-0.85 152.08-0.25L152.08-0.25 152.08-0.2Q151.23 0.55 150.13 0.98 149.03 1.4 148.28 1.3Z" opacity="1" transform="matrix(1,0,0,1,0,0)" fill="black" class="wordmark-text-0" id="SvgjsPath1453" stroke-width="7" stroke="black" stroke-linejoin="round"></path></svg></g></svg></g></svg></g></svg></g></svg></g></svg></g></svg></g></mask><g transform="matrix(1,0,0,1,39.55199999999999,81.63334798534798)"><svg viewBox="0 0 316.416 83.93330402930403" height="83.93330402930403" width="316.416"><g><svg viewBox="0 0 316.416 83.93330402930403" height="83.93330402930403" width="316.416"><g><svg viewBox="0 0 316.416 83.93330402930403" height="83.93330402930403" width="316.416"><g><svg viewBox="0 0 316.416 83.93330402930403" height="83.93330402930403" width="316.416"><g id="textblocktransform"><svg viewBox="0 0 316.416 83.93330402930403" height="83.93330402930403" width="316.416" id="textblock"><g><svg viewBox="0 0 316.416 83.93330402930403" height="83.93330402930403" width="316.416"><g transform="matrix(1,0,0,1,0,0)"><svg width="316.416" viewBox="-2.85 -34.6 164.78 44.45" height="83.93330402930403" data-palette-color="#87ed89"><path d="M49.5 3.05L49.5 3.05Q48 3.05 47.08 1.63 46.15 0.2 46.35-1.75L46.35-1.75Q46.6-4.15 47.53-7.43 48.45-10.7 49.83-14.33 51.2-17.95 52.75-21.35L52.75-21.35Q52.1-20.45 51.18-19.18 50.25-17.9 49.1-16.25L49.1-16.25 48.2-14.95Q47.05-13.3 46.1-12 45.15-10.7 44.4-9.7L44.4-9.7Q44.3-9.6 43.98-9.18 43.65-8.75 43.1-8.05L43.1-8.05Q42.55-7.35 41.93-6.63 41.3-5.9 40.65-5.2L40.65-5.2Q37.65-1.85 36.6-1.85L36.6-1.85Q35.1-1.8 34.35-3.2 33.6-4.6 33.6-7.05L33.6-7.05Q33.6-8.05 33.75-9.25L33.75-9.25Q34.15-13.05 35.85-19.1L35.85-19.1 37-23.2Q37.25-24.05 37.35-24.75 37.45-25.45 37.5-26.05L37.5-26.05Q37.5-26.7 37.93-26.98 38.35-27.25 39-27.25L39-27.25Q39.7-27.25 40.28-26.95 40.85-26.65 40.8-26.3L40.8-26.3Q40.65-25.35 40.4-24.35 40.15-23.35 39.8-22.25L39.8-22.25Q39.7-21.85 39.43-21.2 39.15-20.55 38.75-19.7L38.75-19.7 38.15-18.35Q37.05-15.9 36.4-13.75 35.75-11.6 35.5-9.35L35.5-9.35Q35.45-9.15 35.45-8.83 35.45-8.5 35.45-8.1L35.45-8.1Q35.45-6.6 35.98-5.98 36.5-5.35 37.65-5.3L37.65-5.3Q38.15-5.3 38.98-5.85 39.8-6.4 40.7-7.2 41.6-8 42.43-8.88 43.25-9.75 43.75-10.4L43.75-10.4Q46.75-14.2 49.28-17.78 51.8-21.35 53.58-24.45 55.35-27.55 56.05-29.85L56.05-29.85Q56.3-30.6 57.25-30.6L57.25-30.6Q58-30.6 58.6-30.1 59.2-29.6 58.9-29L58.9-29 58.05-27.35Q56.7-24.7 55.48-22.33 54.25-19.95 53.3-17.75L53.3-17.75 53.25-17.8Q51.2-13.1 50.03-9.18 48.85-5.25 48.5-2.05L48.5-2.05Q48.4-0.6 48.88 0.5 49.35 1.6 50.3 1.6L50.3 1.6Q51.55 1.6 52.95-0.2L52.95-0.2Q53.45-0.85 53.85-0.7L53.85-0.7Q54-0.55 54-0.45L54-0.45Q54-0.2 53.8 0L53.8 0Q52.75 1.55 51.63 2.3 50.5 3.05 49.5 3.05ZM8.35 5.85L8.35 5.85Q5.05 5.85 3.1 3.73 1.15 1.6 1.15-2.2L1.15-2.2Q1.15-7.45 4.95-14.3L4.95-14.3Q7.55-19 10.73-21.28 13.9-23.55 16.8-23.55L16.8-23.55Q19.35-23.55 21.03-22 22.7-20.45 22.7-18.05L22.7-18.05Q22.7-16.25 21.68-14.3 20.65-12.35 18.55-10.4L18.55-10.4Q18.3-10.15 18.05-10.15L18.05-10.15Q17.8-10.15 17.8-10.45L17.8-10.45Q17.8-10.75 18.2-11.15L18.2-11.15Q19.7-12.7 20.45-14.28 21.2-15.85 21.2-17.25L21.2-17.25Q21.2-19.25 19.9-20.53 18.6-21.8 16.6-21.8L16.6-21.8Q14.2-21.8 11.58-19.83 8.95-17.85 6.65-13.7L6.65-13.7Q2.95-6.85 2.95-2.05L2.95-2.05Q2.95 1 4.42 2.7 5.9 4.4 8.5 4.4L8.5 4.4Q10.85 4.4 13.75 3 16.65 1.6 19.9-1.25L19.9-1.25Q24.4-5.25 28.15-10.7L28.15-10.7Q30.05-13.45 31.05-14.9 32.05-16.35 32.15-16.5L32.15-16.5Q32.95-17.6 33.85-18.88 34.75-20.15 35.75-21.65L35.75-21.65Q35.9-21.9 36.05-21.6L36.05-21.6Q36.3-21.2 36.1-20.95L36.1-20.95Q34.95-19.25 33.52-16.88 32.1-14.5 30.3-11.55L30.3-11.55 29.4-10.1 29.45-10.1Q25.45-3.9 20.5 0.25L20.5 0.25Q17.2 3.05 14.08 4.45 10.95 5.85 8.35 5.85ZM57.5 0.55L57.5 0.55Q56.45 0.55 55.65 0L55.65 0Q54.35-1 54.35-3L54.35-3Q54.35-5 55.75-7.25 57.15-9.5 60-11.4L60-11.4Q60.5-11.75 61.35-11.75L61.35-11.75Q62.45-11.75 63.32-11.15 64.2-10.55 64-9.6L64-9.6Q63.65-8.05 62.47-6.85 61.3-5.65 59.72-4.73 58.15-3.8 56.5-2.95L56.5-2.95Q56.45-2.8 56.42-2.65 56.4-2.5 56.4-2.35L56.4-2.35Q56.4-1.65 56.87-1.13 57.35-0.6 58.2-0.6L58.2-0.6Q58.85-0.6 59.3-0.8L59.3-0.8Q60.1-1.1 60.62-1.35 61.15-1.6 61.85-2.1 62.55-2.6 63.75-3.6L63.75-3.6Q64.3-4 64.4-4L64.4-4Q64.7-4 64.6-3.55L64.6-3.55Q64.1-2.75 62.87-1.8 61.65-0.85 60.17-0.15 58.7 0.55 57.5 0.55ZM56.8-4.3L56.8-4.3Q57.2-4.3 58.45-5.1 59.7-5.9 60.8-6.85L60.8-6.85Q62.7-8.6 62.7-9.55L62.7-9.55Q62.7-9.8 62.55-10L62.55-10Q62.4-10.25 62.1-10.25L62.1-10.25Q61.15-10.25 58.9-8L58.9-8Q57.35-6.5 56.8-4.3ZM65.05 4.65L65.05 4.65Q64.8 4.65 64.8 4.2L64.8 4.2Q64.8 4.1 64.82 3.93 64.84 3.75 64.9 3.55L64.9 3.55 67.05-1.85 69.59-8.15Q69-8.2 67.84-8.13 66.7-8.05 65.9-7.9L65.9-7.9Q65.59-7.85 65.42-7.83 65.25-7.8 65.15-7.8L65.15-7.8Q64.75-7.8 64.59-8.15L64.59-8.15Q64.65-8.45 65.15-8.7L65.15-8.7Q65.4-8.8 65.75-8.88 66.09-8.95 66.59-9.05L66.59-9.05Q67.15-9.15 67.57-9.2 68-9.25 68.2-9.3L68.2-9.3Q68.45-9.35 68.7-9.4 68.95-9.45 69.3-9.5L69.3-9.5Q69.59-9.55 69.95-9.6 70.3-9.65 70.7-9.75L70.7-9.75Q71.09-10.3 71.9-11.7 72.7-13.1 73.95-15.4L73.95-15.4Q74.95-17.25 75.57-18.32 76.2-19.4 76.45-19.75L76.45-19.75Q76.9-20.35 77.5-20.35L77.5-20.35Q77.8-20.35 77.8-20.1L77.8-20.1Q77.8-20.05 77.55-19.45L77.55-19.45Q77.25-18.95 76.55-17.6 75.84-16.25 75.05-14.65 74.25-13.05 73.59-11.65 72.95-10.25 72.7-9.6L72.7-9.6Q72.95-9.65 73.27-9.65 73.59-9.65 74.09-9.65L74.09-9.65Q74.65-9.65 75.12-9.63 75.59-9.6 75.95-9.55L75.95-9.55Q76.65-9.4 76.65-9.15L76.65-9.15Q76.65-9.05 76.2-8.8L76.2-8.8Q75.95-8.7 75.25-8.6 74.55-8.5 73.4-8.4L73.4-8.4Q73.09-8.4 72.75-8.38 72.4-8.35 72-8.3L72-8.3Q70.5-5.85 67.9-0.15L67.9-0.15Q66.95 1.75 66.45 2.8 65.95 3.85 65.84 4.05L65.84 4.05Q65.4 4.65 65.05 4.65ZM82.54 1.35L82.54 1.35Q82.44 1.35 82.34 1.33 82.24 1.3 82.14 1.25L82.14 1.25Q81.44 0.9 81.24 0.25 81.04-0.4 81.14-1.4L81.14-1.4Q81.24-1.8 81.37-2.8 81.49-3.8 81.69-4.4L81.69-4.4 79.14-1.95 77.74-0.6Q76.29 0.85 75.34 0.85L75.34 0.85Q74.94 0.85 74.69 0.55L74.69 0.55Q74.24 0 74.24-0.8L74.24-0.8Q74.24-1.85 74.79-3.05 75.34-4.25 76.09-5.38 76.84-6.5 77.44-7.25L77.44-7.25Q78.94-9.1 80.37-10.15 81.79-11.2 83.34-11.2L83.34-11.2Q84.19-11.2 85.02-10.9 85.84-10.6 86.54-9.9L86.54-9.9 86.59-9.85Q86.59-9.7 86.34-9.55L86.34-9.55Q86.24-9.45 86.17-9.4 86.09-9.35 86.04-9.3L86.04-9.3Q85.44-8.7 84.69-7.3 83.94-5.9 83.39-4.38 82.84-2.85 82.84-1.75L82.84-1.75Q82.84-0.75 83.34-0.4L83.34-0.4Q83.59-0.25 83.89-0.25L83.89-0.25Q84.54-0.25 85.69-1.05L85.69-1.05Q85.74-1.1 85.92-1.23 86.09-1.35 86.44-1.6L86.44-1.6Q86.84-1.9 87.09-1.9L87.09-1.9Q87.34-1.9 87.34-1.7L87.34-1.7Q87.34-1.4 86.94-1L86.94-1Q86.64-0.75 86.27-0.45 85.89-0.15 85.39 0.15L85.39 0.15Q84.64 0.7 83.84 1.03 83.04 1.35 82.54 1.35ZM76.89-1.85L76.89-1.85Q77.94-1.85 80.79-4.95L80.79-4.95Q81.54-5.8 82.14-6.58 82.74-7.35 83.24-8.1L83.24-8.1Q84.14-9.55 83.84-10.1L83.84-10.1Q83.69-10.4 83.24-10.4L83.24-10.4Q82.69-10.4 81.74-9.83 80.79-9.25 79.82-8.35 78.84-7.45 78.04-6.55L78.04-6.55Q77.49-5.85 76.94-4.6 76.39-3.35 76.39-2.55L76.39-2.55Q76.39-1.85 76.89-1.85ZM112.99 3.8L112.99 3.8Q111.99 3.8 111.99 2.8L111.99 2.8Q111.99 1.95 112.59 1L112.59 1Q113.84-1 114.74-2.4 115.64-3.8 116.14-4.6L116.14-4.6Q118.99-13.3 118.99-20.15L118.99-20.15Q118.99-24.6 117.79-27.18 116.59-29.75 114.49-29.75L114.49-29.75Q112.59-29.75 110.49-28.5 108.39-27.25 106.39-25.15 104.39-23.05 102.79-20.5L102.79-20.5Q101.49-18.5 100.76-16.6 100.04-14.7 100.04-13.35L100.04-13.35Q100.04-11.1 102.04-11.1L102.04-11.1Q103.34-11.1 104.89-11.95 106.44-12.8 108.24-14.25L108.24-14.25Q108.64-14.55 108.84-14.55L108.84-14.55Q108.94-14.55 108.94-14.45L108.94-14.45Q108.94-14.25 108.64-13.85L108.64-13.85Q107.99-13.1 106.71-12.2 105.44-11.3 104.06-10.63 102.69-9.95 101.64-9.95L101.64-9.95Q99.79-9.95 98.71-11.25 97.64-12.55 97.64-14.5L97.64-14.5Q97.64-15.95 98.24-17.35L98.24-17.35Q98.94-18.9 100.01-20.45 101.09-22 102.49-23.55L102.49-23.55Q104.39-25.65 106.54-27.23 108.69-28.8 110.84-29.7 112.99-30.6 114.89-30.6L114.89-30.6Q118.04-30.6 119.41-27.7 120.79-24.8 120.79-20.25L120.79-20.25Q120.79-18.05 120.51-15.73 120.24-13.4 119.76-11.4 119.29-9.4 118.69-8.05L118.69-8.05Q121.09-11.1 123.79-14.23 126.49-17.35 129.26-20.13 132.04-22.9 134.76-25.1 137.49-27.3 139.96-28.55 142.44-29.8 144.44-29.8L144.44-29.8Q145.59-29.8 145.59-28.7L145.59-28.7Q145.59-27.75 144.44-26L144.44-26Q144.09-25.55 143.79-25.55L143.79-25.55Q143.44-25.55 143.44-25.9L143.44-25.9Q143.44-26.15 143.69-26.55L143.69-26.55Q143.79-26.7 143.94-27 144.09-27.3 144.09-27.55L144.09-27.55Q144.09-27.95 143.64-28.15L143.64-28.15Q143.29-28.3 142.74-28.3L142.74-28.3Q140.29-28.3 135.99-24.75L135.99-24.75Q133.84-22.95 131.61-20.83 129.39-18.7 127.41-16.53 125.44-14.35 123.86-12.43 122.29-10.5 121.39-9.15L121.39-9.15Q120.89-8.4 120.34-7.53 119.79-6.65 119.19-5.65L119.19-5.65 117.94-3.65Q117.59-2.65 117.16-1.53 116.74-0.4 116.19 0.9L116.19 0.9Q115.59 2.3 114.69 3.05 113.79 3.8 112.99 3.8ZM127.69-10.95L127.69-10.95Q127.04-10.95 127.04-11.25L127.04-11.25Q127.04-11.5 127.41-11.98 127.79-12.45 128.28-12.8L128.28-12.8Q129.38-13.5 130.01-14 130.63-14.5 131.53-15.7L131.53-15.7Q131.59-15.6 131.59-15.3L131.59-15.3Q131.59-14.65 131.06-13.73 130.53-12.8 129.88-12.05 129.24-11.3 128.74-11.1L128.74-11.1Q128.28-10.95 127.69-10.95ZM123.23 1.3L123.23 1.3Q122.84 1.3 122.48 1 122.14 0.7 122.14 0.2L122.14 0.2Q122.14-0.85 123.59-3.65L123.59-3.65 124.14-4.75Q124.23-4.85 124.41-5.25 124.59-5.65 124.94-6.3L124.94-6.3Q125.29-7 125.48-7.55 125.69-8.1 125.79-8.6L125.79-8.6Q125.79-8.65 125.98-8.8 126.19-8.95 126.39-9.05L126.39-9.05 126.69-9.1Q127.09-9.1 127.36-8.95 127.64-8.8 127.54-8.55L127.54-8.55Q127.19-7.8 126.94-7.25 126.69-6.7 126.54-6.3L126.54-6.3 126.48-6.3Q125.94-5.05 125.56-3.93 125.19-2.8 125.23-1.8L125.23-1.8 125.29-0.45Q125.23 0.05 124.94 0.4L124.94 0.4Q124.73 0.55 124.39 0.78 124.04 1 123.48 1.25L123.48 1.25Q123.44 1.3 123.23 1.3ZM130.83 0.55L130.83 0.55Q129.78 0.55 128.98 0L128.98 0Q127.68-1 127.68-3L127.68-3Q127.68-5 129.08-7.25 130.48-9.5 133.33-11.4L133.33-11.4Q133.83-11.75 134.68-11.75L134.68-11.75Q135.78-11.75 136.66-11.15 137.53-10.55 137.33-9.6L137.33-9.6Q136.98-8.05 135.81-6.85 134.63-5.65 133.06-4.73 131.48-3.8 129.83-2.95L129.83-2.95Q129.78-2.8 129.76-2.65 129.73-2.5 129.73-2.35L129.73-2.35Q129.73-1.65 130.21-1.13 130.68-0.6 131.53-0.6L131.53-0.6Q132.18-0.6 132.63-0.8L132.63-0.8Q133.43-1.1 133.96-1.35 134.48-1.6 135.18-2.1 135.88-2.6 137.08-3.6L137.08-3.6Q137.63-4 137.73-4L137.73-4Q138.03-4 137.93-3.55L137.93-3.55Q137.43-2.75 136.21-1.8 134.98-0.85 133.51-0.15 132.03 0.55 130.83 0.55ZM130.13-4.3L130.13-4.3Q130.53-4.3 131.78-5.1 133.03-5.9 134.13-6.85L134.13-6.85Q136.03-8.6 136.03-9.55L136.03-9.55Q136.03-9.8 135.88-10L135.88-10Q135.73-10.25 135.43-10.25L135.43-10.25Q134.48-10.25 132.23-8L132.23-8Q130.68-6.5 130.13-4.3ZM148.28 1.3L148.28 1.3Q147.23 1.15 146.86 0.58 146.48 0 146.48-1L146.48-1Q146.48-1.25 146.56-1.8 146.63-2.35 146.73-3.15L146.73-3.15 146.73-3.55Q146.73-4.25 146.48-4.35L146.48-4.35Q146.43-4.4 146.23-4.4L146.23-4.4Q145.88-4.4 144.93-3.75L144.93-3.75Q144.88-3.7 144.38-3.28 143.88-2.85 142.93-2.05L142.93-2.05Q140.18 0.4 139.18 0.15L139.18 0.15Q138.13-0.1 138.13-1.25L138.13-1.25Q138.13-2.35 138.93-3.9L138.93-3.9Q139.58-5.3 140.53-6.63 141.48-7.95 142.03-8.35L142.03-8.35Q142.43-8.6 142.68-8.6L142.68-8.6Q142.93-8.6 143.13-8.4L143.13-8.4Q143.23-8.3 143.23-8.1L143.23-8.1Q143.23-7.9 142.98-7.65L142.98-7.65Q142.48-7.15 142.03-6.13 141.58-5.1 141.58-4.3L141.58-4.3Q141.58-4.2 141.61-4.05 141.63-3.9 141.68-3.7L141.68-3.7Q141.93-3.55 142.23-3.55L142.23-3.55Q142.83-3.55 143.88-4.15L143.88-4.15Q144.28-4.4 144.98-4.88 145.68-5.35 146.68-6.1L146.68-6.1Q147.08-6.4 147.58-6.4L147.58-6.4Q148.13-6.4 148.51-6.03 148.88-5.65 148.88-5L148.88-5Q148.88-4.9 148.86-4.73 148.83-4.55 148.78-4.3L148.78-4.3Q148.68-3.9 148.58-3.55 148.48-3.2 148.43-2.85L148.43-2.85Q148.38-2.65 148.38-2.33 148.38-2 148.38-1.6L148.38-1.6Q148.38-0.5 149.53-0.5L149.53-0.5Q150.03-0.5 150.56-0.68 151.08-0.85 151.33-1.1L151.33-1.1Q153.73-3.2 156.03-6.55L156.03-6.55 155.98-7.15Q155.93-7.65 156.18-8.13 156.43-8.6 156.83-9.1L156.83-9.1Q156.98-9.3 157.23-9.3L157.23-9.3Q157.48-9.3 157.71-9.08 157.93-8.85 157.93-8.5L157.93-8.5Q157.93-8.25 157.78-7.95L157.78-7.95Q157.48-7.4 156.83-6.38 156.18-5.35 155.33-4.15 154.48-2.95 153.63-1.9 152.78-0.85 152.08-0.25L152.08-0.25 152.08-0.2Q151.23 0.55 150.13 0.98 149.03 1.4 148.28 1.3Z" opacity="1" transform="matrix(1,0,0,1,0,0)" fill="#87ed89" class="wordmark-text-0" data-fill-palette-color="primary" id="text-0"></path></svg></g></svg></g></svg></g></svg></g></svg></g></svg></g></svg></g><g mask="url(#f8afebca-d8a2-41b6-abc9-a93be931fd8a)"><g transform="matrix(3.2262549942151257, 0, 0, 3.2262549942151257, 64.63883076306658, 1)"><svg xmlns="http://www.w3.org/2000/svg" data-name="Layer 1" viewBox="8.72213227718764 11.998567862844464 82.52365016133434 76.00143213715553" x="0" y="0" height="76.00143213715553" width="82.52365016133434" class="icon-none" data-fill-palette-color="accent" id="none"><path d="M52 88A2 2 0 0 1 52 84 7.48 7.48 0 0 0 57.57 81.3 9.5 9.5 0 0 0 59.95 74 8 8 0 0 0 53 67.07 7.62 7.62 0 0 0 48 68.15 5.55 5.55 0 0 0 45.84 75.49C46.77 77.18 48.46 78 51 78A2.26 2.26 0 0 0 53.58 75.9 2.63 2.63 0 0 0 51.58 72.97 2 2 0 1 1 52.4 69 6.61 6.61 0 0 1 57.57 76.25 6.24 6.24 0 0 1 51 82C45.93 82 43.48 79.51 42.33 77.43A9.55 9.55 0 0 1 45.87 64.75 11.6 11.6 0 0 1 53.55 63.1 12.09 12.09 0 0 1 63.92 73.53 13.56 13.56 0 0 1 60.57 84 11.42 11.42 0 0 1 52 88" fill="#e9de2c" data-fill-palette-color="accent"></path><path d="M74.51 68.5A2 2 0 0 1 72.91 65.3 8 8 0 0 0 62.42 53.62 2 2 0 0 1 60.42 50.18 12 12 0 0 1 76.11 67.7 2 2 0 0 1 74.51 68.5" fill="#e9de2c" data-fill-palette-color="accent"></path><path d="M65.75 67.14A2 2 0 0 1 64 66.14 8 8 0 0 0 52.92 63.14 2 2 0 0 1 50.92 59.7 12 12 0 0 1 67.5 64.17 2 2 0 0 1 65.75 67.17Z" fill="#e9de2c" data-fill-palette-color="accent"></path><path d="M47 68A2 2 0 0 1 45.59 64.58L70.31 39.95C70.59 39.67 70.86 39.34 71.15 38.95L71.22 38.87A12 12 0 0 1 91 40.78 2 2 0 1 1 87.49 42.7 8 8 0 0 0 74.28 41.43L74.21 41.51A16 16 0 0 1 73.09 42.78L48.42 67.42A2 2 0 0 1 47 68" fill="#e9de2c" data-fill-palette-color="accent"></path><path d="M74.51 68.5A2 2 0 0 1 73.06 65.12C73.33 64.83 79.75 58.12 82.19 55.99A9.32 9.32 0 0 0 85.37 50.87 2 2 0 1 1 89.3 51.63 13.14 13.14 0 0 1 84.82 59C82.52 61 76.03 67.8 75.96 67.87A2 2 0 0 1 74.51 68.5" fill="#e9de2c" data-fill-palette-color="accent"></path><path d="M58 86A2 2 0 0 1 56.54 82.63L73.04 65.13A2 2 0 0 1 76 67.87L59.5 85.37A2 2 0 0 1 58 86" fill="#e9de2c" data-fill-palette-color="accent"></path><path d="M66 67A2 2 0 0 1 64.59 63.59L87.59 40.59A2 2 0 0 1 90.42 43.42L67.42 66.42A2 2 0 0 1 66 67" fill="#e9de2c" data-fill-palette-color="accent"></path><path d="M74 78A2 2 0 0 1 72 76V67A2 2 0 0 1 76 67V76A2 2 0 0 1 74 78" fill="#e9de2c" data-fill-palette-color="accent"></path><path d="M83 69H74A2 2 0 0 1 74 65H83A2 2 0 0 1 83 69" fill="#e9de2c" data-fill-palette-color="accent"></path><path d="M39.87 45.14A2 2 0 0 1 38.98 44.93L9.83 30.36A2 2 0 0 1 9.83 26.78L19.03 22.18 39 12.21A2 2 0 0 1 40.79 12.21L69.9 26.78A2 2 0 0 1 69.9 30.36L40.76 44.93A2 2 0 0 1 39.87 45.14M15.19 28.57L39.87 40.91 64.54 28.57 39.87 16.24Z" fill="#e9de2c" data-fill-palette-color="accent"></path><path d="M63 42A2 2 0 0 1 61 40V33A2 2 0 0 1 65 33V40A2 2 0 0 1 63 42" fill="#e9de2c" data-fill-palette-color="accent"></path><path d="M40.31 59.71A2 2 0 0 1 39.42 59.5L16.11 47.85A2 2 0 0 1 15 46.06V33A2 2 0 0 1 19 33V44.82L40.31 55.48 52.31 49.48A2 2 0 0 1 54.14 53L41.21 59.5A2 2 0 0 1 40.31 59.71" fill="#e9de2c" data-fill-palette-color="accent"></path><path d="M40 27A2 2 0 1 0 42 29 2 2 0 0 0 40 27" fill="#e9de2c" data-fill-palette-color="accent"></path><path d="M25.3 37.86A2 2 0 0 1 24.4 34.07L33.14 29.7A2 2 0 1 1 34.93 33.28L26.19 37.65A2 2 0 0 1 25.3 37.86" fill="#e9de2c" data-fill-palette-color="accent"></path><path d="M25 67A2 2 0 0 1 23 65V63A2 2 0 0 1 27 63V65A2 2 0 0 1 25 67" fill="#e9de2c" data-fill-palette-color="accent"></path><path d="M25 59A2 2 0 0 1 23 57V36A2 2 0 0 1 27 36V57A2 2 0 0 1 25 59" fill="#e9de2c" data-fill-palette-color="accent"></path></svg></g></g></svg></g><defs></defs></svg><rect width="395.52" height="247.2" fill="none" stroke="none" visibility="hidden"></rect></g></svg></g></svg>